<svg width="24" height="28" viewBox="0 0 24 28" fill="none" xmlns="http://www.w3.org/2000/svg">
<path d="M24 8.66675V25.9907C24.0012 26.1658 23.968 26.3395 23.9021 26.5017C23.8362 26.6639 23.739 26.8116 23.6161 26.9363C23.4931 27.061 23.3468 27.1602 23.1855 27.2284C23.0242 27.2965 22.8511 27.3322 22.676 27.3334H1.324C0.973084 27.3334 0.636522 27.1941 0.388262 26.9461C0.140002 26.6981 0.000353389 26.3617 0 26.0107V1.98941C0 1.27341 0.598666 0.666748 1.336 0.666748H15.996L24 8.66675ZM21.3333 10.0001H14.6667V3.33341H2.66667V24.6667H21.3333V10.0001ZM6.66667 7.33342H10.6667V10.0001H6.66667V7.33342ZM6.66667 12.6667H17.3333V15.3334H6.66667V12.6667ZM6.66667 18.0001H17.3333V20.6667H6.66667V18.0001Z" fill="#E7E7E7"/>
</svg>
