<svg width="29" height="29" viewBox="0 0 29 29" fill="none" xmlns="http://www.w3.org/2000/svg">
<path d="M3.33366 19.3334V3.33341H0.666992V0.666748H4.66699C5.02061 0.666748 5.35975 0.807224 5.6098 1.05727C5.85985 1.30732 6.00033 1.64646 6.00033 2.00008V18.0001H22.5843L25.251 7.33342H8.66699V4.66675H26.9603C27.163 4.66675 27.363 4.71296 27.5451 4.80186C27.7273 4.89076 27.8868 5.02002 28.0114 5.1798C28.1361 5.33958 28.2227 5.52568 28.2647 5.72396C28.3067 5.92224 28.3029 6.12748 28.2537 6.32408L24.9203 19.6574C24.8481 19.9457 24.6816 20.2017 24.4473 20.3845C24.2129 20.5674 23.9242 20.6667 23.627 20.6667H4.66699C4.31337 20.6667 3.97423 20.5263 3.72418 20.2762C3.47413 20.0262 3.33366 19.687 3.33366 19.3334ZM6.00033 28.6667C5.29308 28.6667 4.6148 28.3858 4.11471 27.8857C3.61461 27.3856 3.33366 26.7073 3.33366 26.0001C3.33366 25.2928 3.61461 24.6146 4.11471 24.1145C4.6148 23.6144 5.29308 23.3334 6.00033 23.3334C6.70757 23.3334 7.38585 23.6144 7.88594 24.1145C8.38604 24.6146 8.66699 25.2928 8.66699 26.0001C8.66699 26.7073 8.38604 27.3856 7.88594 27.8857C7.38585 28.3858 6.70757 28.6667 6.00033 28.6667ZM22.0003 28.6667C21.2931 28.6667 20.6148 28.3858 20.1147 27.8857C19.6146 27.3856 19.3337 26.7073 19.3337 26.0001C19.3337 25.2928 19.6146 24.6146 20.1147 24.1145C20.6148 23.6144 21.2931 23.3334 22.0003 23.3334C22.7076 23.3334 23.3858 23.6144 23.8859 24.1145C24.386 24.6146 24.667 25.2928 24.667 26.0001C24.667 26.7073 24.386 27.3856 23.8859 27.8857C23.3858 28.3858 22.7076 28.6667 22.0003 28.6667Z" fill="#E7E7E7"/>
</svg>
